<svg width="156" height="40" viewBox="0 0 156 40" fill="none" xmlns="http://www.w3.org/2000/svg">
<rect width="156" height="40" rx="3" fill="#0D101E"/>
<path d="M50.9043 17.9385H51.0068L53.0166 25H54.6709L57.3164 15.1357H55.4912L53.8027 22.5391H53.707L51.7383 15.1357H50.1729L48.2314 22.5391H48.1289L46.4404 15.1357H44.6016L47.2471 25H48.9082L50.9043 17.9385ZM61.4043 25.1504C63.6396 25.1504 65 23.6875 65 21.2607C65 18.8477 63.6328 17.3848 61.4043 17.3848C59.1826 17.3848 57.8086 18.8545 57.8086 21.2607C57.8086 23.6875 59.1621 25.1504 61.4043 25.1504ZM61.4043 23.7627C60.2217 23.7627 59.5449 22.8467 59.5449 21.2676C59.5449 19.6885 60.2217 18.7725 61.4043 18.7725C62.5801 18.7725 63.2568 19.6885 63.2568 21.2676C63.2568 22.8467 62.5869 23.7627 61.4043 23.7627ZM66.709 25H68.4043V20.6592C68.4043 19.6064 69.1699 18.9229 70.2705 18.9229C70.5576 18.9229 71.0088 18.9707 71.1387 19.0186V17.4736C70.9814 17.4326 70.6807 17.4053 70.4346 17.4053C69.4707 17.4053 68.6641 17.9521 68.459 18.6904H68.3428V17.5283H66.709V25ZM74.4131 20.5908H74.2969V14.6367H72.6016V25H74.2969V22.375L74.8984 21.7734L77.2979 25H79.3486L76.1631 20.7344L79.1436 17.5283H77.1748L74.4131 20.5908ZM85.248 16.2773C85.8086 16.2773 86.2666 15.833 86.2666 15.2725C86.2666 14.7188 85.8086 14.2676 85.248 14.2676C84.6943 14.2676 84.2363 14.7188 84.2363 15.2725C84.2363 15.833 84.6943 16.2773 85.248 16.2773ZM84.4072 25H86.0957V17.5283H84.4072V25ZM88.2012 25H89.8965V20.6455C89.8965 19.5244 90.5322 18.8203 91.5439 18.8203C92.5762 18.8203 93.0547 19.4014 93.0547 20.5635V25H94.75V20.167C94.75 18.3896 93.8408 17.3848 92.1729 17.3848C91.0586 17.3848 90.3066 17.8906 89.9512 18.7246H89.835V17.5283H88.2012V25ZM102.434 21.2881H104.389L106.323 25H108.34L106.187 21.0215C107.362 20.5977 108.046 19.5107 108.046 18.2051C108.046 16.3184 106.747 15.1357 104.676 15.1357H100.67V25H102.434V21.2881ZM102.434 16.5645H104.43C105.551 16.5645 106.234 17.2002 106.234 18.2393C106.234 19.2988 105.592 19.9072 104.471 19.9072H102.434V16.5645ZM114.649 22.9561C114.403 23.5166 113.822 23.8311 112.981 23.8311C111.867 23.8311 111.149 23.0381 111.108 21.7734V21.6846H116.331V21.1445C116.331 18.7998 115.053 17.3848 112.92 17.3848C110.753 17.3848 109.406 18.8955 109.406 21.2949C109.406 23.6875 110.732 25.1504 112.934 25.1504C114.697 25.1504 115.948 24.3027 116.256 22.9561H114.649ZM112.913 18.7041C113.932 18.7041 114.602 19.4219 114.636 20.5566H111.115C111.19 19.4355 111.901 18.7041 112.913 18.7041ZM122.107 17.4053C121.082 17.4053 120.214 17.918 119.783 18.7656H119.667V17.5283H118.033V27.4814H119.729V23.8652H119.845C120.228 24.6582 121.055 25.123 122.128 25.123C124.015 25.123 125.19 23.6396 125.19 21.2676C125.19 18.875 124.001 17.4053 122.107 17.4053ZM121.574 23.7148C120.419 23.7148 119.701 22.7783 119.694 21.2676C119.701 19.7568 120.426 18.8203 121.581 18.8203C122.743 18.8203 123.447 19.7363 123.447 21.2676C123.447 22.7988 122.75 23.7148 121.574 23.7148ZM126.961 25H128.656V14.6367H126.961V25ZM132.067 25.1367C132.717 25.1367 133.161 24.6787 133.161 24.0703C133.161 23.4688 132.717 23.0107 132.067 23.0107C131.425 23.0107 130.974 23.4688 130.974 24.0703C130.974 24.6787 131.425 25.1367 132.067 25.1367ZM136.271 16.2773C136.832 16.2773 137.29 15.833 137.29 15.2725C137.29 14.7188 136.832 14.2676 136.271 14.2676C135.718 14.2676 135.26 14.7188 135.26 15.2725C135.26 15.833 135.718 16.2773 136.271 16.2773ZM135.431 25H137.119V17.5283H135.431V25ZM139.765 15.6963V17.5762H138.582V18.8955H139.765V23.0176C139.765 24.46 140.448 25.0342 142.164 25.0342C142.492 25.0342 142.807 25.0068 143.053 24.959V23.6602C142.848 23.6807 142.718 23.6943 142.479 23.6943C141.768 23.6943 141.453 23.3594 141.453 22.6143V18.8955H143.053V17.5762H141.453V15.6963H139.765Z" fill="white"/>
<path d="M35.7246 18.8462C35.7569 19.2027 35.7792 19.5625 35.7792 19.9277C35.7792 19.5625 35.7569 19.203 35.7246 18.8462Z" fill="white"/>
<path d="M18.2497 18.7837C18.2497 18.7837 14.9742 30.8524 28.1028 30.9574C32.222 29.424 35.2573 25.6646 35.7173 21.1321C35.7491 20.8186 35.7586 20.4988 35.7657 20.1785C35.767 20.0942 35.7782 20.0123 35.7782 19.9275C35.7782 19.5625 35.756 19.2025 35.7237 18.8459C32.2551 32.5003 16.9106 27.1521 18.2497 18.7837Z" fill="white"/>
<path d="M25.0378 14.3043C25.0378 14.3043 12.8141 10.8906 13.0021 24.2191C13.6287 25.8298 14.6011 27.2834 15.8508 28.4772C15.9033 28.5269 15.9576 28.5738 16.0107 28.6227C16.3641 28.9485 16.7371 29.2526 17.1276 29.533C17.1883 29.5763 17.2453 29.6241 17.3062 29.6664C17.7192 29.9489 18.15 30.2046 18.5956 30.432C18.7251 30.4987 18.8582 30.5597 18.9895 30.6219C19.373 30.8025 19.7662 30.962 20.1671 31.0997C20.2656 31.1333 20.3596 31.1753 20.4594 31.2066C20.9401 31.3536 21.4297 31.4694 21.9253 31.5532C22.0752 31.5795 22.2267 31.6015 22.3785 31.6225C22.8926 31.6968 23.4111 31.737 23.9305 31.743C23.9505 31.743 23.9696 31.7462 23.9896 31.7462C24.3814 31.7462 24.7681 31.7252 25.1496 31.6877C11.4346 28.4168 16.6477 13.0807 25.0378 14.3043Z" fill="white"/>
<path d="M29.8018 20.6248C29.8018 20.6248 32.6937 8.43262 19.6761 8.97719C15.3109 10.7015 12.2207 14.9488 12.2207 19.9263C12.2248 20.4623 12.2652 20.9974 12.3417 21.528C15.0814 7.73419 30.6893 12.2015 29.8018 20.6248Z" fill="white"/>
<path d="M23.5516 25.8713C23.5516 25.8713 35.7965 27.4699 35.0301 15.8278C33.3636 11.3466 29.0605 8.14795 23.9993 8.14795C23.2826 8.15072 22.5677 8.21865 21.8633 8.35091C35.5074 10.0258 31.9611 25.9905 23.5516 25.8713Z" fill="white"/>
<path d="M27.3992 19.9276C27.3992 20.5802 27.2056 21.2181 26.843 21.7606C26.4805 22.3032 25.9652 22.726 25.3623 22.9757C24.7593 23.2254 24.0959 23.2907 23.456 23.1633C22.8159 23.0359 22.2281 22.7216 21.7667 22.2601C21.3054 21.7986 20.9912 21.2106 20.8641 20.5706C20.7369 19.9305 20.8024 19.2672 21.0522 18.6643C21.3021 18.0615 21.7251 17.5463 22.2678 17.1839C22.8105 16.8215 23.4485 16.6282 24.101 16.6284C24.9758 16.6287 25.8148 16.9763 26.4333 17.595C27.0518 18.2137 27.3992 19.0528 27.3992 19.9276Z" fill="white"/>
</svg>
